<mxfile host="app.diagrams.net" modified="2022-01-31T13:18:04.238Z" agent="5.0 (Windows NT 10.0; Win64; x64) AppleWebKit/537.36 (KHTML, like Gecko) Chrome/97.0.4692.99 Safari/537.36" etag="Bm2zpo4Mpt4vhTSJ1-Wz" version="16.5.2" type="github">
  <diagram id="R2lEEEUBdFMjLlhIrx00" name="Page-1">
    <mxGraphModel dx="2586" dy="1629" grid="1" gridSize="10" guides="1" tooltips="1" connect="1" arrows="1" fold="1" page="1" pageScale="1" pageWidth="1100" pageHeight="850" background="#F4F1DE" math="0" shadow="0" extFonts="Permanent Marker^https://fonts.googleapis.com/css?family=Permanent+Marker">
      <root>
        <mxCell id="0" />
        <mxCell id="1" parent="0" />
        <mxCell id="gDFf323imL8Mll2fyUSn-1" value="&lt;font style=&quot;font-size: 15px&quot;&gt;Admin User&lt;/font&gt;" style="rounded=1;whiteSpace=wrap;html=1;fillColor=#F2CC8F;strokeColor=#E07A5F;fontColor=#393C56;sketch=1;" vertex="1" parent="1">
          <mxGeometry x="390" y="370" width="120" height="60" as="geometry" />
        </mxCell>
        <mxCell id="gDFf323imL8Mll2fyUSn-2" value="Sister Concern" style="rounded=1;whiteSpace=wrap;html=1;fontSize=15;fillColor=#F2CC8F;strokeColor=#E07A5F;fontColor=#393C56;sketch=1;" vertex="1" parent="1">
          <mxGeometry x="20" y="370" width="120" height="60" as="geometry" />
        </mxCell>
        <mxCell id="gDFf323imL8Mll2fyUSn-3" value="Slider" style="rounded=1;whiteSpace=wrap;html=1;fontSize=15;fillColor=#F2CC8F;strokeColor=#E07A5F;fontColor=#393C56;sketch=1;" vertex="1" parent="1">
          <mxGeometry x="70" y="100" width="120" height="60" as="geometry" />
        </mxCell>
        <mxCell id="gDFf323imL8Mll2fyUSn-4" value="Testimonial" style="rounded=1;whiteSpace=wrap;html=1;fontSize=15;fillColor=#F2CC8F;strokeColor=#E07A5F;fontColor=#393C56;sketch=1;" vertex="1" parent="1">
          <mxGeometry x="410" y="80" width="120" height="60" as="geometry" />
        </mxCell>
        <mxCell id="gDFf323imL8Mll2fyUSn-5" value="Client" style="rounded=1;whiteSpace=wrap;html=1;fontSize=15;fillColor=#F2CC8F;strokeColor=#E07A5F;fontColor=#393C56;sketch=1;" vertex="1" parent="1">
          <mxGeometry x="730" y="110" width="120" height="60" as="geometry" />
        </mxCell>
        <mxCell id="gDFf323imL8Mll2fyUSn-6" value="Services" style="rounded=1;whiteSpace=wrap;html=1;fontSize=15;fillColor=#F2CC8F;strokeColor=#E07A5F;fontColor=#393C56;sketch=1;" vertex="1" parent="1">
          <mxGeometry x="820" y="370" width="120" height="60" as="geometry" />
        </mxCell>
        <mxCell id="gDFf323imL8Mll2fyUSn-7" value="Product" style="rounded=1;whiteSpace=wrap;html=1;fontSize=15;fillColor=#F2CC8F;strokeColor=#E07A5F;fontColor=#393C56;sketch=1;" vertex="1" parent="1">
          <mxGeometry x="180" y="650" width="120" height="60" as="geometry" />
        </mxCell>
        <mxCell id="gDFf323imL8Mll2fyUSn-8" value="Event" style="rounded=1;whiteSpace=wrap;html=1;fontSize=15;fillColor=#F2CC8F;strokeColor=#E07A5F;fontColor=#393C56;sketch=1;" vertex="1" parent="1">
          <mxGeometry x="630" y="650" width="120" height="60" as="geometry" />
        </mxCell>
        <mxCell id="gDFf323imL8Mll2fyUSn-9" value="&lt;font style=&quot;font-size: 10px&quot;&gt;Full_name&lt;/font&gt;" style="ellipse;whiteSpace=wrap;html=1;fontSize=15;rotation=-35;fillColor=#F2CC8F;strokeColor=#E07A5F;fontColor=#393C56;rounded=1;sketch=1;" vertex="1" parent="1">
          <mxGeometry x="300" y="325" width="60" height="30" as="geometry" />
        </mxCell>
        <mxCell id="gDFf323imL8Mll2fyUSn-10" value="&lt;font style=&quot;font-size: 10px&quot;&gt;Gender&lt;/font&gt;" style="ellipse;whiteSpace=wrap;html=1;fontSize=15;rotation=40;fillColor=#F2CC8F;strokeColor=#E07A5F;fontColor=#393C56;rounded=1;sketch=1;" vertex="1" parent="1">
          <mxGeometry x="510" y="330" width="40" height="20" as="geometry" />
        </mxCell>
        <mxCell id="gDFf323imL8Mll2fyUSn-11" value="&lt;font style=&quot;font-size: 10px&quot;&gt;Email&lt;/font&gt;" style="ellipse;whiteSpace=wrap;html=1;fontSize=15;rotation=0;fillColor=#F2CC8F;strokeColor=#E07A5F;fontColor=#393C56;rounded=1;sketch=1;" vertex="1" parent="1">
          <mxGeometry x="470" y="315" width="40" height="20" as="geometry" />
        </mxCell>
        <mxCell id="gDFf323imL8Mll2fyUSn-12" value="&lt;font style=&quot;font-size: 10px&quot;&gt;Profile_Image&lt;/font&gt;" style="ellipse;whiteSpace=wrap;html=1;fontSize=15;rotation=30;fillColor=#F2CC8F;strokeColor=#E07A5F;fontColor=#393C56;rounded=1;sketch=1;" vertex="1" parent="1">
          <mxGeometry x="300" y="465" width="70" height="25" as="geometry" />
        </mxCell>
        <mxCell id="gDFf323imL8Mll2fyUSn-13" value="&lt;font style=&quot;font-size: 10px&quot;&gt;Username&lt;/font&gt;" style="ellipse;whiteSpace=wrap;html=1;fontSize=15;rotation=-33;fillColor=#F2CC8F;strokeColor=#E07A5F;fontColor=#393C56;rounded=1;sketch=1;" vertex="1" parent="1">
          <mxGeometry x="530" y="440" width="50" height="30" as="geometry" />
        </mxCell>
        <mxCell id="gDFf323imL8Mll2fyUSn-14" value="&lt;font style=&quot;font-size: 10px&quot;&gt;Password&lt;/font&gt;" style="ellipse;whiteSpace=wrap;html=1;fontSize=15;fillColor=#F2CC8F;strokeColor=#E07A5F;fontColor=#393C56;rounded=1;sketch=1;" vertex="1" parent="1">
          <mxGeometry x="425" y="470" width="50" height="20" as="geometry" />
        </mxCell>
        <mxCell id="gDFf323imL8Mll2fyUSn-16" value="" style="endArrow=none;html=1;rounded=1;fontSize=10;entryX=0.75;entryY=0;entryDx=0;entryDy=0;exitX=0.426;exitY=0.981;exitDx=0;exitDy=0;exitPerimeter=0;fillColor=#F2CC8F;strokeColor=#E07A5F;labelBackgroundColor=#F4F1DE;fontColor=#393C56;sketch=1;curved=1;" edge="1" parent="1" source="gDFf323imL8Mll2fyUSn-11" target="gDFf323imL8Mll2fyUSn-1">
          <mxGeometry width="50" height="50" relative="1" as="geometry">
            <mxPoint x="454" y="340" as="sourcePoint" />
            <mxPoint x="510" y="340" as="targetPoint" />
          </mxGeometry>
        </mxCell>
        <mxCell id="gDFf323imL8Mll2fyUSn-17" value="" style="endArrow=none;html=1;rounded=1;fontSize=10;entryX=0.02;entryY=0.053;entryDx=0;entryDy=0;exitX=0.5;exitY=1;exitDx=0;exitDy=0;entryPerimeter=0;fillColor=#F2CC8F;strokeColor=#E07A5F;labelBackgroundColor=#F4F1DE;fontColor=#393C56;sketch=1;curved=1;" edge="1" parent="1" source="gDFf323imL8Mll2fyUSn-9" target="gDFf323imL8Mll2fyUSn-1">
          <mxGeometry width="50" height="50" relative="1" as="geometry">
            <mxPoint x="464" y="350" as="sourcePoint" />
            <mxPoint x="464.43999999999994" y="378.8600000000001" as="targetPoint" />
          </mxGeometry>
        </mxCell>
        <mxCell id="gDFf323imL8Mll2fyUSn-19" value="" style="endArrow=none;html=1;rounded=1;fontSize=10;entryX=0.982;entryY=0.053;entryDx=0;entryDy=0;exitX=0.5;exitY=1;exitDx=0;exitDy=0;entryPerimeter=0;fillColor=#F2CC8F;strokeColor=#E07A5F;labelBackgroundColor=#F4F1DE;fontColor=#393C56;sketch=1;curved=1;" edge="1" parent="1" source="gDFf323imL8Mll2fyUSn-10" target="gDFf323imL8Mll2fyUSn-1">
          <mxGeometry width="50" height="50" relative="1" as="geometry">
            <mxPoint x="462.03999999999996" y="344.6199999999999" as="sourcePoint" />
            <mxPoint x="460" y="380" as="targetPoint" />
          </mxGeometry>
        </mxCell>
        <mxCell id="gDFf323imL8Mll2fyUSn-20" value="" style="endArrow=none;html=1;rounded=1;fontSize=10;entryX=0.974;entryY=0.969;entryDx=0;entryDy=0;exitX=0.5;exitY=0;exitDx=0;exitDy=0;entryPerimeter=0;fillColor=#F2CC8F;strokeColor=#E07A5F;labelBackgroundColor=#F4F1DE;fontColor=#393C56;sketch=1;curved=1;" edge="1" parent="1" source="gDFf323imL8Mll2fyUSn-13" target="gDFf323imL8Mll2fyUSn-1">
          <mxGeometry width="50" height="50" relative="1" as="geometry">
            <mxPoint x="533.5721239031345" y="357.6604444311897" as="sourcePoint" />
            <mxPoint x="517.84" y="383.17999999999995" as="targetPoint" />
          </mxGeometry>
        </mxCell>
        <mxCell id="gDFf323imL8Mll2fyUSn-21" value="" style="endArrow=none;html=1;rounded=1;fontSize=10;entryX=0.5;entryY=1;entryDx=0;entryDy=0;exitX=0.5;exitY=0;exitDx=0;exitDy=0;fillColor=#F2CC8F;strokeColor=#E07A5F;labelBackgroundColor=#F4F1DE;fontColor=#393C56;sketch=1;curved=1;" edge="1" parent="1" source="gDFf323imL8Mll2fyUSn-14" target="gDFf323imL8Mll2fyUSn-1">
          <mxGeometry width="50" height="50" relative="1" as="geometry">
            <mxPoint x="565" y="450" as="sourcePoint" />
            <mxPoint x="516.88" y="438.1400000000001" as="targetPoint" />
          </mxGeometry>
        </mxCell>
        <mxCell id="gDFf323imL8Mll2fyUSn-22" value="" style="endArrow=none;html=1;rounded=1;fontSize=10;entryX=0.5;entryY=0;entryDx=0;entryDy=0;exitX=0.03;exitY=0.979;exitDx=0;exitDy=0;exitPerimeter=0;fillColor=#F2CC8F;strokeColor=#E07A5F;labelBackgroundColor=#F4F1DE;fontColor=#393C56;sketch=1;curved=1;" edge="1" parent="1" source="gDFf323imL8Mll2fyUSn-1" target="gDFf323imL8Mll2fyUSn-12">
          <mxGeometry width="50" height="50" relative="1" as="geometry">
            <mxPoint x="460" y="480" as="sourcePoint" />
            <mxPoint x="460" y="440" as="targetPoint" />
          </mxGeometry>
        </mxCell>
        <mxCell id="gDFf323imL8Mll2fyUSn-23" value="&lt;span style=&quot;font-size: 10px&quot;&gt;Image&lt;/span&gt;" style="ellipse;whiteSpace=wrap;html=1;fontSize=15;rotation=0;fillColor=#F2CC8F;strokeColor=#E07A5F;fontColor=#393C56;rounded=1;sketch=1;" vertex="1" parent="1">
          <mxGeometry x="10" y="280" width="60" height="30" as="geometry" />
        </mxCell>
        <mxCell id="gDFf323imL8Mll2fyUSn-24" value="&lt;span style=&quot;font-size: 10px&quot;&gt;name&lt;/span&gt;" style="ellipse;whiteSpace=wrap;html=1;fontSize=15;rotation=0;fillColor=#F2CC8F;strokeColor=#E07A5F;fontColor=#393C56;rounded=1;sketch=1;" vertex="1" parent="1">
          <mxGeometry x="-30" y="450" width="60" height="30" as="geometry" />
        </mxCell>
        <mxCell id="gDFf323imL8Mll2fyUSn-25" value="&lt;span style=&quot;font-size: 10px&quot;&gt;Content&lt;/span&gt;" style="ellipse;whiteSpace=wrap;html=1;fontSize=15;rotation=0;fillColor=#F2CC8F;strokeColor=#E07A5F;fontColor=#393C56;rounded=1;sketch=1;" vertex="1" parent="1">
          <mxGeometry x="-70" y="390" width="60" height="30" as="geometry" />
        </mxCell>
        <mxCell id="gDFf323imL8Mll2fyUSn-26" value="&lt;span style=&quot;font-size: 10px&quot;&gt;Description&lt;/span&gt;" style="ellipse;whiteSpace=wrap;html=1;fontSize=15;rotation=0;fillColor=#F2CC8F;strokeColor=#E07A5F;fontColor=#393C56;rounded=1;sketch=1;" vertex="1" parent="1">
          <mxGeometry x="-50" y="330" width="60" height="30" as="geometry" />
        </mxCell>
        <mxCell id="gDFf323imL8Mll2fyUSn-28" value="" style="endArrow=none;html=1;rounded=1;fontSize=10;exitX=1;exitY=0.5;exitDx=0;exitDy=0;entryX=0.002;entryY=0.578;entryDx=0;entryDy=0;entryPerimeter=0;fillColor=#F2CC8F;strokeColor=#E07A5F;labelBackgroundColor=#F4F1DE;fontColor=#393C56;sketch=1;curved=1;" edge="1" parent="1" source="gDFf323imL8Mll2fyUSn-25" target="gDFf323imL8Mll2fyUSn-2">
          <mxGeometry width="50" height="50" relative="1" as="geometry">
            <mxPoint x="100" y="420" as="sourcePoint" />
            <mxPoint x="150" y="370" as="targetPoint" />
          </mxGeometry>
        </mxCell>
        <mxCell id="gDFf323imL8Mll2fyUSn-29" value="" style="endArrow=none;html=1;rounded=1;fontSize=10;exitX=0.5;exitY=0;exitDx=0;exitDy=0;entryX=0.02;entryY=0.934;entryDx=0;entryDy=0;entryPerimeter=0;fillColor=#F2CC8F;strokeColor=#E07A5F;labelBackgroundColor=#F4F1DE;fontColor=#393C56;sketch=1;curved=1;" edge="1" parent="1" source="gDFf323imL8Mll2fyUSn-24" target="gDFf323imL8Mll2fyUSn-2">
          <mxGeometry width="50" height="50" relative="1" as="geometry">
            <mxPoint y="415" as="sourcePoint" />
            <mxPoint x="30.24000000000001" y="414.68000000000006" as="targetPoint" />
          </mxGeometry>
        </mxCell>
        <mxCell id="gDFf323imL8Mll2fyUSn-30" value="" style="endArrow=none;html=1;rounded=1;fontSize=10;exitX=1;exitY=0.5;exitDx=0;exitDy=0;entryX=0.013;entryY=0.067;entryDx=0;entryDy=0;entryPerimeter=0;fillColor=#F2CC8F;strokeColor=#E07A5F;labelBackgroundColor=#F4F1DE;fontColor=#393C56;sketch=1;curved=1;" edge="1" parent="1" source="gDFf323imL8Mll2fyUSn-26" target="gDFf323imL8Mll2fyUSn-2">
          <mxGeometry width="50" height="50" relative="1" as="geometry">
            <mxPoint x="10" y="460" as="sourcePoint" />
            <mxPoint x="32.40000000000009" y="436.03999999999996" as="targetPoint" />
          </mxGeometry>
        </mxCell>
        <mxCell id="gDFf323imL8Mll2fyUSn-31" value="" style="endArrow=none;html=1;rounded=1;fontSize=10;exitX=0.5;exitY=1;exitDx=0;exitDy=0;entryX=0.25;entryY=0;entryDx=0;entryDy=0;fillColor=#F2CC8F;strokeColor=#E07A5F;labelBackgroundColor=#F4F1DE;fontColor=#393C56;sketch=1;curved=1;" edge="1" parent="1" source="gDFf323imL8Mll2fyUSn-23" target="gDFf323imL8Mll2fyUSn-2">
          <mxGeometry width="50" height="50" relative="1" as="geometry">
            <mxPoint x="20" y="355" as="sourcePoint" />
            <mxPoint x="31.559999999999945" y="384.02" as="targetPoint" />
          </mxGeometry>
        </mxCell>
        <mxCell id="gDFf323imL8Mll2fyUSn-32" value="&lt;span style=&quot;font-size: 10px&quot;&gt;Image&lt;/span&gt;" style="ellipse;whiteSpace=wrap;html=1;fontSize=15;rotation=0;fillColor=#F2CC8F;strokeColor=#E07A5F;fontColor=#393C56;rounded=1;sketch=1;" vertex="1" parent="1">
          <mxGeometry x="20" y="30" width="60" height="30" as="geometry" />
        </mxCell>
        <mxCell id="gDFf323imL8Mll2fyUSn-33" value="&lt;span style=&quot;font-size: 10px&quot;&gt;Position&lt;/span&gt;" style="ellipse;whiteSpace=wrap;html=1;fontSize=15;rotation=0;fillColor=#F2CC8F;strokeColor=#E07A5F;fontColor=#393C56;rounded=1;sketch=1;" vertex="1" parent="1">
          <mxGeometry x="110" y="20" width="60" height="30" as="geometry" />
        </mxCell>
        <mxCell id="gDFf323imL8Mll2fyUSn-34" value="&lt;span style=&quot;font-size: 10px&quot;&gt;Caption&lt;/span&gt;" style="ellipse;whiteSpace=wrap;html=1;fontSize=15;rotation=15;fillColor=#F2CC8F;strokeColor=#E07A5F;fontColor=#393C56;rounded=1;sketch=1;" vertex="1" parent="1">
          <mxGeometry x="190" y="20" width="60" height="30" as="geometry" />
        </mxCell>
        <mxCell id="gDFf323imL8Mll2fyUSn-36" value="" style="endArrow=none;html=1;rounded=1;fontSize=10;exitX=0.5;exitY=1;exitDx=0;exitDy=0;fillColor=#F2CC8F;strokeColor=#E07A5F;labelBackgroundColor=#F4F1DE;fontColor=#393C56;sketch=1;curved=1;" edge="1" parent="1" source="gDFf323imL8Mll2fyUSn-32" target="gDFf323imL8Mll2fyUSn-3">
          <mxGeometry width="50" height="50" relative="1" as="geometry">
            <mxPoint x="50" y="320" as="sourcePoint" />
            <mxPoint x="60" y="380" as="targetPoint" />
          </mxGeometry>
        </mxCell>
        <mxCell id="gDFf323imL8Mll2fyUSn-37" value="" style="endArrow=none;html=1;rounded=1;fontSize=10;exitX=0.438;exitY=0.996;exitDx=0;exitDy=0;entryX=0.5;entryY=0;entryDx=0;entryDy=0;exitPerimeter=0;fillColor=#F2CC8F;strokeColor=#E07A5F;labelBackgroundColor=#F4F1DE;fontColor=#393C56;sketch=1;curved=1;" edge="1" parent="1" source="gDFf323imL8Mll2fyUSn-33" target="gDFf323imL8Mll2fyUSn-3">
          <mxGeometry width="50" height="50" relative="1" as="geometry">
            <mxPoint x="60" y="70" as="sourcePoint" />
            <mxPoint x="80" y="140" as="targetPoint" />
          </mxGeometry>
        </mxCell>
        <mxCell id="gDFf323imL8Mll2fyUSn-38" value="" style="endArrow=none;html=1;rounded=1;fontSize=10;exitX=0.5;exitY=1;exitDx=0;exitDy=0;entryX=0.933;entryY=0.001;entryDx=0;entryDy=0;entryPerimeter=0;fillColor=#F2CC8F;strokeColor=#E07A5F;labelBackgroundColor=#F4F1DE;fontColor=#393C56;sketch=1;curved=1;" edge="1" parent="1" source="gDFf323imL8Mll2fyUSn-34" target="gDFf323imL8Mll2fyUSn-3">
          <mxGeometry width="50" height="50" relative="1" as="geometry">
            <mxPoint x="146.27999999999997" y="59.879999999999995" as="sourcePoint" />
            <mxPoint x="140" y="110" as="targetPoint" />
          </mxGeometry>
        </mxCell>
        <mxCell id="gDFf323imL8Mll2fyUSn-39" value="&lt;span style=&quot;font-size: 10px&quot;&gt;Image&lt;/span&gt;" style="ellipse;whiteSpace=wrap;html=1;fontSize=15;rotation=0;fillColor=#F2CC8F;strokeColor=#E07A5F;fontColor=#393C56;rounded=1;sketch=1;" vertex="1" parent="1">
          <mxGeometry x="350" y="20" width="60" height="30" as="geometry" />
        </mxCell>
        <mxCell id="gDFf323imL8Mll2fyUSn-40" value="&lt;span style=&quot;font-size: 10px&quot;&gt;Title&lt;/span&gt;" style="ellipse;whiteSpace=wrap;html=1;fontSize=15;rotation=0;fillColor=#F2CC8F;strokeColor=#E07A5F;fontColor=#393C56;rounded=1;sketch=1;" vertex="1" parent="1">
          <mxGeometry x="410" y="-20" width="60" height="30" as="geometry" />
        </mxCell>
        <mxCell id="gDFf323imL8Mll2fyUSn-41" value="&lt;span style=&quot;font-size: 10px&quot;&gt;Authors&lt;/span&gt;" style="ellipse;whiteSpace=wrap;html=1;fontSize=15;rotation=0;fillColor=#F2CC8F;strokeColor=#E07A5F;fontColor=#393C56;rounded=1;sketch=1;" vertex="1" parent="1">
          <mxGeometry x="490" y="-10" width="60" height="30" as="geometry" />
        </mxCell>
        <mxCell id="gDFf323imL8Mll2fyUSn-42" value="&lt;span style=&quot;font-size: 10px&quot;&gt;Description&lt;/span&gt;" style="ellipse;whiteSpace=wrap;html=1;fontSize=15;rotation=0;fillColor=#F2CC8F;strokeColor=#E07A5F;fontColor=#393C56;rounded=1;sketch=1;" vertex="1" parent="1">
          <mxGeometry x="530" y="30" width="60" height="30" as="geometry" />
        </mxCell>
        <mxCell id="gDFf323imL8Mll2fyUSn-44" value="" style="endArrow=none;html=1;rounded=1;fontSize=10;exitX=0.5;exitY=1;exitDx=0;exitDy=0;fillColor=#F2CC8F;strokeColor=#E07A5F;labelBackgroundColor=#F4F1DE;fontColor=#393C56;sketch=1;curved=1;" edge="1" parent="1" source="gDFf323imL8Mll2fyUSn-39">
          <mxGeometry width="50" height="50" relative="1" as="geometry">
            <mxPoint x="226.11771432346222" y="59.48888739433596" as="sourcePoint" />
            <mxPoint x="420" y="80" as="targetPoint" />
          </mxGeometry>
        </mxCell>
        <mxCell id="gDFf323imL8Mll2fyUSn-45" value="" style="endArrow=none;html=1;rounded=1;fontSize=10;exitX=0.5;exitY=1;exitDx=0;exitDy=0;entryX=0.25;entryY=0;entryDx=0;entryDy=0;fillColor=#F2CC8F;strokeColor=#E07A5F;labelBackgroundColor=#F4F1DE;fontColor=#393C56;sketch=1;curved=1;" edge="1" parent="1" source="gDFf323imL8Mll2fyUSn-40" target="gDFf323imL8Mll2fyUSn-4">
          <mxGeometry width="50" height="50" relative="1" as="geometry">
            <mxPoint x="390" y="60" as="sourcePoint" />
            <mxPoint x="430" y="90" as="targetPoint" />
          </mxGeometry>
        </mxCell>
        <mxCell id="gDFf323imL8Mll2fyUSn-46" value="" style="endArrow=none;html=1;rounded=1;fontSize=10;exitX=0.5;exitY=1;exitDx=0;exitDy=0;entryX=0.5;entryY=0;entryDx=0;entryDy=0;fillColor=#F2CC8F;strokeColor=#E07A5F;labelBackgroundColor=#F4F1DE;fontColor=#393C56;sketch=1;curved=1;" edge="1" parent="1" source="gDFf323imL8Mll2fyUSn-41" target="gDFf323imL8Mll2fyUSn-4">
          <mxGeometry width="50" height="50" relative="1" as="geometry">
            <mxPoint x="450" y="20" as="sourcePoint" />
            <mxPoint x="450" y="90" as="targetPoint" />
          </mxGeometry>
        </mxCell>
        <mxCell id="gDFf323imL8Mll2fyUSn-47" value="" style="endArrow=none;html=1;rounded=1;fontSize=10;exitX=0.5;exitY=1;exitDx=0;exitDy=0;entryX=0.967;entryY=0.036;entryDx=0;entryDy=0;entryPerimeter=0;fillColor=#F2CC8F;strokeColor=#E07A5F;labelBackgroundColor=#F4F1DE;fontColor=#393C56;sketch=1;curved=1;" edge="1" parent="1" source="gDFf323imL8Mll2fyUSn-42" target="gDFf323imL8Mll2fyUSn-4">
          <mxGeometry width="50" height="50" relative="1" as="geometry">
            <mxPoint x="530" y="30" as="sourcePoint" />
            <mxPoint x="480" y="90" as="targetPoint" />
          </mxGeometry>
        </mxCell>
        <mxCell id="gDFf323imL8Mll2fyUSn-48" value="" style="endArrow=none;html=1;rounded=1;fontSize=10;exitX=0.5;exitY=1;exitDx=0;exitDy=0;entryX=0.083;entryY=0;entryDx=0;entryDy=0;entryPerimeter=0;fillColor=#F2CC8F;strokeColor=#E07A5F;labelBackgroundColor=#F4F1DE;fontColor=#393C56;sketch=1;curved=1;" edge="1" source="gDFf323imL8Mll2fyUSn-49" parent="1" target="gDFf323imL8Mll2fyUSn-5">
          <mxGeometry width="50" height="50" relative="1" as="geometry">
            <mxPoint x="703.96" y="30" as="sourcePoint" />
            <mxPoint x="700.0000000000005" y="82.15999999999985" as="targetPoint" />
          </mxGeometry>
        </mxCell>
        <mxCell id="gDFf323imL8Mll2fyUSn-49" value="&lt;span style=&quot;font-size: 10px&quot;&gt;Client Image&lt;/span&gt;" style="ellipse;whiteSpace=wrap;html=1;fontSize=15;rotation=0;fillColor=#F2CC8F;strokeColor=#E07A5F;fontColor=#393C56;rounded=1;sketch=1;" vertex="1" parent="1">
          <mxGeometry x="690" y="40" width="60" height="30" as="geometry" />
        </mxCell>
        <mxCell id="gDFf323imL8Mll2fyUSn-50" value="&lt;span style=&quot;font-size: 10px&quot;&gt;Client&amp;nbsp; Name&lt;/span&gt;" style="ellipse;whiteSpace=wrap;html=1;fontSize=15;rotation=0;fillColor=#F2CC8F;strokeColor=#E07A5F;fontColor=#393C56;rounded=1;sketch=1;" vertex="1" parent="1">
          <mxGeometry x="750" y="20" width="70" height="30" as="geometry" />
        </mxCell>
        <mxCell id="gDFf323imL8Mll2fyUSn-51" value="" style="endArrow=none;html=1;rounded=1;fontSize=10;exitX=0.5;exitY=1;exitDx=0;exitDy=0;entryX=0.467;entryY=0.02;entryDx=0;entryDy=0;entryPerimeter=0;fillColor=#F2CC8F;strokeColor=#E07A5F;labelBackgroundColor=#F4F1DE;fontColor=#393C56;sketch=1;curved=1;" edge="1" source="gDFf323imL8Mll2fyUSn-50" parent="1" target="gDFf323imL8Mll2fyUSn-5">
          <mxGeometry width="50" height="50" relative="1" as="geometry">
            <mxPoint x="763.96" y="10" as="sourcePoint" />
            <mxPoint x="799.96" y="90" as="targetPoint" />
          </mxGeometry>
        </mxCell>
        <mxCell id="gDFf323imL8Mll2fyUSn-52" value="&lt;span style=&quot;font-size: 10px&quot;&gt;Client&amp;nbsp; Description&lt;/span&gt;" style="ellipse;whiteSpace=wrap;html=1;fontSize=15;rotation=0;fillColor=#F2CC8F;strokeColor=#E07A5F;fontColor=#393C56;rounded=1;sketch=1;" vertex="1" parent="1">
          <mxGeometry x="830" y="30" width="90" height="30" as="geometry" />
        </mxCell>
        <mxCell id="gDFf323imL8Mll2fyUSn-53" value="" style="endArrow=none;html=1;rounded=1;fontSize=10;exitX=0.5;exitY=1;exitDx=0;exitDy=0;entryX=0.881;entryY=0.011;entryDx=0;entryDy=0;entryPerimeter=0;fillColor=#F2CC8F;strokeColor=#E07A5F;labelBackgroundColor=#F4F1DE;fontColor=#393C56;sketch=1;curved=1;" edge="1" source="gDFf323imL8Mll2fyUSn-52" parent="1" target="gDFf323imL8Mll2fyUSn-5">
          <mxGeometry width="50" height="50" relative="1" as="geometry">
            <mxPoint x="843.96" y="20" as="sourcePoint" />
            <mxPoint x="834.7600000000002" y="119.22000000000008" as="targetPoint" />
          </mxGeometry>
        </mxCell>
        <mxCell id="gDFf323imL8Mll2fyUSn-55" value="&lt;span style=&quot;font-size: 10px&quot;&gt;Title&lt;/span&gt;" style="ellipse;whiteSpace=wrap;html=1;fontSize=15;rotation=0;fillColor=#F2CC8F;strokeColor=#E07A5F;fontColor=#393C56;rounded=1;sketch=1;" vertex="1" parent="1">
          <mxGeometry x="910" y="315" width="90" height="30" as="geometry" />
        </mxCell>
        <mxCell id="gDFf323imL8Mll2fyUSn-56" value="" style="endArrow=none;html=1;rounded=1;fontSize=10;exitX=0.5;exitY=1;exitDx=0;exitDy=0;entryX=0.881;entryY=0.011;entryDx=0;entryDy=0;entryPerimeter=0;fillColor=#F2CC8F;strokeColor=#E07A5F;labelBackgroundColor=#F4F1DE;fontColor=#393C56;sketch=1;curved=1;" edge="1" source="gDFf323imL8Mll2fyUSn-55" parent="1">
          <mxGeometry width="50" height="50" relative="1" as="geometry">
            <mxPoint x="933.96" y="280" as="sourcePoint" />
            <mxPoint x="925.7199999999998" y="370.65999999999985" as="targetPoint" />
          </mxGeometry>
        </mxCell>
        <mxCell id="gDFf323imL8Mll2fyUSn-57" value="&lt;span style=&quot;font-size: 10px&quot;&gt;Image&lt;/span&gt;" style="ellipse;whiteSpace=wrap;html=1;fontSize=15;rotation=0;fillColor=#F2CC8F;strokeColor=#E07A5F;fontColor=#393C56;rounded=1;sketch=1;" vertex="1" parent="1">
          <mxGeometry x="845" y="300" width="70" height="30" as="geometry" />
        </mxCell>
        <mxCell id="gDFf323imL8Mll2fyUSn-58" value="" style="endArrow=none;html=1;rounded=1;fontSize=10;exitX=0.5;exitY=1;exitDx=0;exitDy=0;fillColor=#F2CC8F;strokeColor=#E07A5F;labelBackgroundColor=#F4F1DE;fontColor=#393C56;sketch=1;curved=1;" edge="1" source="gDFf323imL8Mll2fyUSn-57" parent="1">
          <mxGeometry width="50" height="50" relative="1" as="geometry">
            <mxPoint x="853.96" y="270" as="sourcePoint" />
            <mxPoint x="876" y="371" as="targetPoint" />
          </mxGeometry>
        </mxCell>
        <mxCell id="gDFf323imL8Mll2fyUSn-59" value="&lt;span style=&quot;font-size: 10px&quot;&gt;event_image&lt;/span&gt;" style="ellipse;whiteSpace=wrap;html=1;fontSize=15;rotation=0;fillColor=#F2CC8F;strokeColor=#E07A5F;fontColor=#393C56;rounded=1;sketch=1;" vertex="1" parent="1">
          <mxGeometry x="665" y="579" width="70" height="30" as="geometry" />
        </mxCell>
        <mxCell id="gDFf323imL8Mll2fyUSn-60" value="&lt;span style=&quot;font-size: 10px&quot;&gt;event_title&lt;/span&gt;" style="ellipse;whiteSpace=wrap;html=1;fontSize=15;rotation=0;fillColor=#F2CC8F;strokeColor=#E07A5F;fontColor=#393C56;rounded=1;sketch=1;" vertex="1" parent="1">
          <mxGeometry x="730" y="594" width="90" height="30" as="geometry" />
        </mxCell>
        <mxCell id="gDFf323imL8Mll2fyUSn-61" value="" style="endArrow=none;html=1;rounded=1;fontSize=10;exitX=0.5;exitY=1;exitDx=0;exitDy=0;entryX=0.881;entryY=0.011;entryDx=0;entryDy=0;entryPerimeter=0;fillColor=#F2CC8F;strokeColor=#E07A5F;labelBackgroundColor=#F4F1DE;fontColor=#393C56;sketch=1;curved=1;" edge="1" source="gDFf323imL8Mll2fyUSn-60" parent="1">
          <mxGeometry width="50" height="50" relative="1" as="geometry">
            <mxPoint x="753.96" y="559" as="sourcePoint" />
            <mxPoint x="745.7199999999998" y="649.6599999999999" as="targetPoint" />
          </mxGeometry>
        </mxCell>
        <mxCell id="gDFf323imL8Mll2fyUSn-62" value="" style="endArrow=none;html=1;rounded=1;fontSize=10;exitX=0.5;exitY=1;exitDx=0;exitDy=0;fillColor=#F2CC8F;strokeColor=#E07A5F;labelBackgroundColor=#F4F1DE;fontColor=#393C56;sketch=1;curved=1;" edge="1" source="gDFf323imL8Mll2fyUSn-59" parent="1">
          <mxGeometry width="50" height="50" relative="1" as="geometry">
            <mxPoint x="673.96" y="549" as="sourcePoint" />
            <mxPoint x="696" y="650" as="targetPoint" />
          </mxGeometry>
        </mxCell>
        <mxCell id="gDFf323imL8Mll2fyUSn-63" value="&lt;span style=&quot;font-size: 10px&quot;&gt;event_decription&lt;/span&gt;" style="ellipse;whiteSpace=wrap;html=1;fontSize=15;rotation=0;fillColor=#F2CC8F;strokeColor=#E07A5F;fontColor=#393C56;rounded=1;sketch=1;" vertex="1" parent="1">
          <mxGeometry x="785" y="660" width="95" height="30" as="geometry" />
        </mxCell>
        <mxCell id="gDFf323imL8Mll2fyUSn-64" value="&lt;span style=&quot;font-size: 10px&quot;&gt;event_content&lt;/span&gt;" style="ellipse;whiteSpace=wrap;html=1;fontSize=15;rotation=0;fillColor=#F2CC8F;strokeColor=#E07A5F;fontColor=#393C56;rounded=1;sketch=1;" vertex="1" parent="1">
          <mxGeometry x="750" y="730" width="90" height="30" as="geometry" />
        </mxCell>
        <mxCell id="gDFf323imL8Mll2fyUSn-65" value="" style="endArrow=none;html=1;rounded=1;fontSize=10;exitX=0.827;exitY=1.019;exitDx=0;exitDy=0;entryX=0.556;entryY=0;entryDx=0;entryDy=0;entryPerimeter=0;exitPerimeter=0;fillColor=#F2CC8F;strokeColor=#E07A5F;labelBackgroundColor=#F4F1DE;fontColor=#393C56;sketch=1;curved=1;" edge="1" source="gDFf323imL8Mll2fyUSn-8" parent="1" target="gDFf323imL8Mll2fyUSn-64">
          <mxGeometry width="50" height="50" relative="1" as="geometry">
            <mxPoint x="873.96" y="640" as="sourcePoint" />
            <mxPoint x="865.7199999999998" y="730.6599999999999" as="targetPoint" />
          </mxGeometry>
        </mxCell>
        <mxCell id="gDFf323imL8Mll2fyUSn-66" value="" style="endArrow=none;html=1;rounded=1;fontSize=10;exitX=0;exitY=0.5;exitDx=0;exitDy=0;entryX=1;entryY=0.5;entryDx=0;entryDy=0;fillColor=#F2CC8F;strokeColor=#E07A5F;labelBackgroundColor=#F4F1DE;fontColor=#393C56;sketch=1;curved=1;" edge="1" source="gDFf323imL8Mll2fyUSn-63" parent="1" target="gDFf323imL8Mll2fyUSn-8">
          <mxGeometry width="50" height="50" relative="1" as="geometry">
            <mxPoint x="793.96" y="630" as="sourcePoint" />
            <mxPoint x="816" y="731" as="targetPoint" />
          </mxGeometry>
        </mxCell>
        <mxCell id="gDFf323imL8Mll2fyUSn-67" value="&lt;span style=&quot;font-size: 10px&quot;&gt;product_name&lt;/span&gt;" style="ellipse;whiteSpace=wrap;html=1;fontSize=15;rotation=0;fillColor=#F2CC8F;strokeColor=#E07A5F;fontColor=#393C56;rounded=1;sketch=1;" vertex="1" parent="1">
          <mxGeometry x="202.5" y="579" width="75" height="30" as="geometry" />
        </mxCell>
        <mxCell id="gDFf323imL8Mll2fyUSn-68" value="" style="endArrow=none;html=1;rounded=1;fontSize=10;exitX=0.5;exitY=1;exitDx=0;exitDy=0;fillColor=#F2CC8F;strokeColor=#E07A5F;labelBackgroundColor=#F4F1DE;fontColor=#393C56;sketch=1;curved=1;" edge="1" source="gDFf323imL8Mll2fyUSn-67" parent="1">
          <mxGeometry width="50" height="50" relative="1" as="geometry">
            <mxPoint x="213.96000000000004" y="549" as="sourcePoint" />
            <mxPoint x="236" y="650" as="targetPoint" />
          </mxGeometry>
        </mxCell>
        <mxCell id="gDFf323imL8Mll2fyUSn-69" value="&lt;span style=&quot;font-size: 10px&quot;&gt;product_image&lt;/span&gt;" style="ellipse;whiteSpace=wrap;html=1;fontSize=15;rotation=0;fillColor=#F2CC8F;strokeColor=#E07A5F;fontColor=#393C56;rounded=1;sketch=1;" vertex="1" parent="1">
          <mxGeometry x="340" y="680" width="80" height="30" as="geometry" />
        </mxCell>
        <mxCell id="gDFf323imL8Mll2fyUSn-70" value="" style="endArrow=none;html=1;rounded=1;fontSize=10;exitX=0;exitY=0.5;exitDx=0;exitDy=0;entryX=1;entryY=0.5;entryDx=0;entryDy=0;fillColor=#F2CC8F;strokeColor=#E07A5F;labelBackgroundColor=#F4F1DE;fontColor=#393C56;sketch=1;curved=1;" edge="1" source="gDFf323imL8Mll2fyUSn-69" parent="1" target="gDFf323imL8Mll2fyUSn-7">
          <mxGeometry width="50" height="50" relative="1" as="geometry">
            <mxPoint x="223.96000000000004" y="559" as="sourcePoint" />
            <mxPoint x="246" y="660" as="targetPoint" />
          </mxGeometry>
        </mxCell>
        <mxCell id="gDFf323imL8Mll2fyUSn-71" value="&lt;span style=&quot;font-size: 10px&quot;&gt;product_description&lt;/span&gt;" style="ellipse;whiteSpace=wrap;html=1;fontSize=15;rotation=0;fillColor=#F2CC8F;strokeColor=#E07A5F;fontColor=#393C56;rounded=1;sketch=1;" vertex="1" parent="1">
          <mxGeometry x="90" y="600" width="100" height="30" as="geometry" />
        </mxCell>
        <mxCell id="gDFf323imL8Mll2fyUSn-72" value="" style="endArrow=none;html=1;rounded=1;fontSize=10;exitX=0.5;exitY=1;exitDx=0;exitDy=0;entryX=0.005;entryY=0.086;entryDx=0;entryDy=0;entryPerimeter=0;fillColor=#F2CC8F;strokeColor=#E07A5F;labelBackgroundColor=#F4F1DE;fontColor=#393C56;sketch=1;curved=1;" edge="1" source="gDFf323imL8Mll2fyUSn-71" parent="1" target="gDFf323imL8Mll2fyUSn-7">
          <mxGeometry width="50" height="50" relative="1" as="geometry">
            <mxPoint x="113.96000000000004" y="549" as="sourcePoint" />
            <mxPoint x="136" y="650" as="targetPoint" />
          </mxGeometry>
        </mxCell>
        <mxCell id="gDFf323imL8Mll2fyUSn-73" value="&lt;b&gt;Add&lt;/b&gt;" style="rhombus;whiteSpace=wrap;html=1;fontSize=10;rotation=25;fillColor=#F2CC8F;strokeColor=#E07A5F;fontColor=#393C56;rounded=1;sketch=1;" vertex="1" parent="1">
          <mxGeometry x="330" y="544" width="80" height="80" as="geometry" />
        </mxCell>
        <mxCell id="gDFf323imL8Mll2fyUSn-74" value="&lt;b&gt;Add&lt;/b&gt;" style="rhombus;whiteSpace=wrap;html=1;fontSize=10;rotation=45;fillColor=#F2CC8F;strokeColor=#E07A5F;fontColor=#393C56;rounded=1;sketch=1;" vertex="1" parent="1">
          <mxGeometry x="540" y="514" width="80" height="80" as="geometry" />
        </mxCell>
        <mxCell id="gDFf323imL8Mll2fyUSn-75" value="&lt;b&gt;Add&lt;/b&gt;" style="rhombus;whiteSpace=wrap;html=1;fontSize=10;fillColor=#F2CC8F;strokeColor=#E07A5F;fontColor=#393C56;rounded=1;sketch=1;" vertex="1" parent="1">
          <mxGeometry x="640" y="360" width="80" height="80" as="geometry" />
        </mxCell>
        <mxCell id="gDFf323imL8Mll2fyUSn-76" value="&lt;b&gt;Add&lt;/b&gt;" style="rhombus;whiteSpace=wrap;html=1;fontSize=10;rotation=-45;fillColor=#F2CC8F;strokeColor=#E07A5F;fontColor=#393C56;rounded=1;sketch=1;" vertex="1" parent="1">
          <mxGeometry x="610" y="230" width="80" height="80" as="geometry" />
        </mxCell>
        <mxCell id="gDFf323imL8Mll2fyUSn-77" value="&lt;b&gt;Add&lt;/b&gt;" style="rhombus;whiteSpace=wrap;html=1;fontSize=10;rotation=0;fillColor=#F2CC8F;strokeColor=#E07A5F;fontColor=#393C56;rounded=1;sketch=1;" vertex="1" parent="1">
          <mxGeometry x="415" y="210" width="80" height="80" as="geometry" />
        </mxCell>
        <mxCell id="gDFf323imL8Mll2fyUSn-78" value="&lt;b&gt;Add&lt;/b&gt;" style="rhombus;whiteSpace=wrap;html=1;fontSize=10;rotation=45;fillColor=#F2CC8F;strokeColor=#E07A5F;fontColor=#393C56;rounded=1;sketch=1;" vertex="1" parent="1">
          <mxGeometry x="270" y="190" width="80" height="80" as="geometry" />
        </mxCell>
        <mxCell id="gDFf323imL8Mll2fyUSn-79" value="&lt;b&gt;Add&lt;/b&gt;" style="rhombus;whiteSpace=wrap;html=1;fontSize=10;rotation=0;fillColor=#F2CC8F;strokeColor=#E07A5F;fontColor=#393C56;rounded=1;sketch=1;" vertex="1" parent="1">
          <mxGeometry x="197.5" y="365" width="80" height="80" as="geometry" />
        </mxCell>
        <mxCell id="gDFf323imL8Mll2fyUSn-80" value="" style="endArrow=none;html=1;rounded=1;fontSize=10;exitX=0;exitY=0.5;exitDx=0;exitDy=0;entryX=1;entryY=0.5;entryDx=0;entryDy=0;fillColor=#F2CC8F;strokeColor=#E07A5F;labelBackgroundColor=#F4F1DE;fontColor=#393C56;sketch=1;curved=1;" edge="1" parent="1" source="gDFf323imL8Mll2fyUSn-1" target="gDFf323imL8Mll2fyUSn-79">
          <mxGeometry width="50" height="50" relative="1" as="geometry">
            <mxPoint x="570" y="370" as="sourcePoint" />
            <mxPoint x="620" y="320" as="targetPoint" />
          </mxGeometry>
        </mxCell>
        <mxCell id="gDFf323imL8Mll2fyUSn-81" value="" style="endArrow=none;html=1;rounded=1;fontSize=10;entryX=1;entryY=0.5;entryDx=0;entryDy=0;fillColor=#F2CC8F;strokeColor=#E07A5F;labelBackgroundColor=#F4F1DE;fontColor=#393C56;sketch=1;curved=1;" edge="1" parent="1" source="gDFf323imL8Mll2fyUSn-1" target="gDFf323imL8Mll2fyUSn-78">
          <mxGeometry width="50" height="50" relative="1" as="geometry">
            <mxPoint x="400" y="410" as="sourcePoint" />
            <mxPoint x="287.5" y="415" as="targetPoint" />
          </mxGeometry>
        </mxCell>
        <mxCell id="gDFf323imL8Mll2fyUSn-82" value="" style="endArrow=none;html=1;rounded=1;fontSize=10;entryX=0.5;entryY=1;entryDx=0;entryDy=0;exitX=0.5;exitY=0;exitDx=0;exitDy=0;fillColor=#F2CC8F;strokeColor=#E07A5F;labelBackgroundColor=#F4F1DE;fontColor=#393C56;sketch=1;curved=1;" edge="1" parent="1" source="gDFf323imL8Mll2fyUSn-1" target="gDFf323imL8Mll2fyUSn-77">
          <mxGeometry width="50" height="50" relative="1" as="geometry">
            <mxPoint x="436.35074178372633" y="380" as="sourcePoint" />
            <mxPoint x="348.2842712474619" y="268.2842712474619" as="targetPoint" />
          </mxGeometry>
        </mxCell>
        <mxCell id="gDFf323imL8Mll2fyUSn-83" value="" style="endArrow=none;html=1;rounded=1;fontSize=10;entryX=0;entryY=0.5;entryDx=0;entryDy=0;exitX=1.007;exitY=0.37;exitDx=0;exitDy=0;exitPerimeter=0;fillColor=#F2CC8F;strokeColor=#E07A5F;labelBackgroundColor=#F4F1DE;fontColor=#393C56;sketch=1;curved=1;" edge="1" parent="1" source="gDFf323imL8Mll2fyUSn-1" target="gDFf323imL8Mll2fyUSn-76">
          <mxGeometry width="50" height="50" relative="1" as="geometry">
            <mxPoint x="460" y="380" as="sourcePoint" />
            <mxPoint x="465" y="300" as="targetPoint" />
          </mxGeometry>
        </mxCell>
        <mxCell id="gDFf323imL8Mll2fyUSn-84" value="" style="endArrow=none;html=1;rounded=1;fontSize=10;entryX=0;entryY=0.5;entryDx=0;entryDy=0;exitX=1;exitY=0.5;exitDx=0;exitDy=0;fillColor=#F2CC8F;strokeColor=#E07A5F;labelBackgroundColor=#F4F1DE;fontColor=#393C56;sketch=1;curved=1;" edge="1" parent="1" source="gDFf323imL8Mll2fyUSn-1" target="gDFf323imL8Mll2fyUSn-75">
          <mxGeometry width="50" height="50" relative="1" as="geometry">
            <mxPoint x="520.8400000000001" y="402.1999999999998" as="sourcePoint" />
            <mxPoint x="631.7157287525383" y="308.2842712474617" as="targetPoint" />
          </mxGeometry>
        </mxCell>
        <mxCell id="gDFf323imL8Mll2fyUSn-85" value="" style="endArrow=none;html=1;rounded=1;fontSize=10;exitX=0;exitY=0.5;exitDx=0;exitDy=0;fillColor=#F2CC8F;strokeColor=#E07A5F;labelBackgroundColor=#F4F1DE;fontColor=#393C56;sketch=1;curved=1;" edge="1" parent="1" source="gDFf323imL8Mll2fyUSn-74">
          <mxGeometry width="50" height="50" relative="1" as="geometry">
            <mxPoint x="520" y="410" as="sourcePoint" />
            <mxPoint x="490" y="430" as="targetPoint" />
          </mxGeometry>
        </mxCell>
        <mxCell id="gDFf323imL8Mll2fyUSn-86" value="" style="endArrow=none;html=1;rounded=1;fontSize=10;entryX=0.168;entryY=1.005;entryDx=0;entryDy=0;exitX=0.5;exitY=0;exitDx=0;exitDy=0;entryPerimeter=0;fillColor=#F2CC8F;strokeColor=#E07A5F;labelBackgroundColor=#F4F1DE;fontColor=#393C56;sketch=1;curved=1;" edge="1" parent="1" source="gDFf323imL8Mll2fyUSn-73" target="gDFf323imL8Mll2fyUSn-1">
          <mxGeometry width="50" height="50" relative="1" as="geometry">
            <mxPoint x="551.7157287525383" y="541.7157287525383" as="sourcePoint" />
            <mxPoint x="503.44000000000005" y="442.7000000000003" as="targetPoint" />
          </mxGeometry>
        </mxCell>
        <mxCell id="gDFf323imL8Mll2fyUSn-87" value="" style="endArrow=none;html=1;rounded=1;fontSize=10;exitX=0.5;exitY=1;exitDx=0;exitDy=0;entryX=0.979;entryY=0.05;entryDx=0;entryDy=0;entryPerimeter=0;fillColor=#F2CC8F;strokeColor=#E07A5F;labelBackgroundColor=#F4F1DE;fontColor=#393C56;sketch=1;curved=1;" edge="1" parent="1" source="gDFf323imL8Mll2fyUSn-73" target="gDFf323imL8Mll2fyUSn-7">
          <mxGeometry width="50" height="50" relative="1" as="geometry">
            <mxPoint x="480" y="490" as="sourcePoint" />
            <mxPoint x="530" y="440" as="targetPoint" />
          </mxGeometry>
        </mxCell>
        <mxCell id="gDFf323imL8Mll2fyUSn-88" value="" style="endArrow=none;html=1;rounded=1;fontSize=10;exitX=1;exitY=0.5;exitDx=0;exitDy=0;entryX=0.024;entryY=0.037;entryDx=0;entryDy=0;entryPerimeter=0;fillColor=#F2CC8F;strokeColor=#E07A5F;labelBackgroundColor=#F4F1DE;fontColor=#393C56;sketch=1;curved=1;" edge="1" parent="1" source="gDFf323imL8Mll2fyUSn-74" target="gDFf323imL8Mll2fyUSn-8">
          <mxGeometry width="50" height="50" relative="1" as="geometry">
            <mxPoint x="363.09526953037175" y="630.2523114814658" as="sourcePoint" />
            <mxPoint x="307.48" y="663" as="targetPoint" />
          </mxGeometry>
        </mxCell>
        <mxCell id="gDFf323imL8Mll2fyUSn-89" value="" style="endArrow=none;html=1;rounded=1;fontSize=10;exitX=1;exitY=0.5;exitDx=0;exitDy=0;entryX=0;entryY=0.5;entryDx=0;entryDy=0;fillColor=#F2CC8F;strokeColor=#E07A5F;labelBackgroundColor=#F4F1DE;fontColor=#393C56;sketch=1;curved=1;" edge="1" parent="1" source="gDFf323imL8Mll2fyUSn-75" target="gDFf323imL8Mll2fyUSn-6">
          <mxGeometry width="50" height="50" relative="1" as="geometry">
            <mxPoint x="740" y="450" as="sourcePoint" />
            <mxPoint x="750" y="578.4404125548245" as="targetPoint" />
          </mxGeometry>
        </mxCell>
        <mxCell id="gDFf323imL8Mll2fyUSn-90" value="" style="endArrow=none;html=1;rounded=1;fontSize=10;exitX=0;exitY=0.5;exitDx=0;exitDy=0;entryX=1;entryY=0.5;entryDx=0;entryDy=0;fillColor=#F2CC8F;strokeColor=#E07A5F;labelBackgroundColor=#F4F1DE;fontColor=#393C56;sketch=1;curved=1;" edge="1" parent="1" source="gDFf323imL8Mll2fyUSn-79" target="gDFf323imL8Mll2fyUSn-2">
          <mxGeometry width="50" height="50" relative="1" as="geometry">
            <mxPoint x="90" y="320" as="sourcePoint" />
            <mxPoint x="140" y="270" as="targetPoint" />
          </mxGeometry>
        </mxCell>
        <mxCell id="gDFf323imL8Mll2fyUSn-91" value="" style="endArrow=none;html=1;rounded=1;fontSize=10;entryX=0;entryY=0.5;entryDx=0;entryDy=0;exitX=0.583;exitY=1;exitDx=0;exitDy=0;exitPerimeter=0;fillColor=#F2CC8F;strokeColor=#E07A5F;labelBackgroundColor=#F4F1DE;fontColor=#393C56;sketch=1;curved=1;" edge="1" parent="1" source="gDFf323imL8Mll2fyUSn-3" target="gDFf323imL8Mll2fyUSn-78">
          <mxGeometry width="50" height="50" relative="1" as="geometry">
            <mxPoint x="208" y="190" as="sourcePoint" />
            <mxPoint x="150" y="410" as="targetPoint" />
          </mxGeometry>
        </mxCell>
        <mxCell id="gDFf323imL8Mll2fyUSn-92" value="" style="endArrow=none;html=1;rounded=1;fontSize=10;fillColor=#F2CC8F;strokeColor=#E07A5F;labelBackgroundColor=#F4F1DE;fontColor=#393C56;sketch=1;curved=1;" edge="1" parent="1" source="gDFf323imL8Mll2fyUSn-4">
          <mxGeometry width="50" height="50" relative="1" as="geometry">
            <mxPoint x="149.96000000000004" y="169.99999999999977" as="sourcePoint" />
            <mxPoint x="455" y="210" as="targetPoint" />
          </mxGeometry>
        </mxCell>
        <mxCell id="gDFf323imL8Mll2fyUSn-93" value="" style="endArrow=none;html=1;rounded=1;fontSize=10;entryX=1;entryY=0.5;entryDx=0;entryDy=0;exitX=0.476;exitY=0.999;exitDx=0;exitDy=0;exitPerimeter=0;fillColor=#F2CC8F;strokeColor=#E07A5F;labelBackgroundColor=#F4F1DE;fontColor=#393C56;sketch=1;curved=1;" edge="1" parent="1" source="gDFf323imL8Mll2fyUSn-5" target="gDFf323imL8Mll2fyUSn-76">
          <mxGeometry width="50" height="50" relative="1" as="geometry">
            <mxPoint x="475.5" y="150" as="sourcePoint" />
            <mxPoint x="464.99999999999955" y="220" as="targetPoint" />
          </mxGeometry>
        </mxCell>
      </root>
    </mxGraphModel>
  </diagram>
</mxfile>
